<svg enable-background="new 0 0 66.5 16" viewBox="0 0 66.5 16" xmlns="http://www.w3.org/2000/svg"><path d="m0 11.5h66.5v1.7h-66.5z"/><path d="m60.9 3.7h1.2l-1.3 1.7h-.7zm-.2 2.1h.5v3.7l.1.1h.5v.5h-2.5v-.4h.5l.1-.1v-2.9h-.5v-.4s1.3-.5 1.3-.5zm-5.2 4.3v-.4h.4l.1-.1v-2.9h-.6v-.4l1.5-.5h.5l-.1 1c.3-.4.7-.7 1.1-1h.1c.3 0 .4 0 .6.2l-.2 1.6h-.6c-.2-.4-.4-.6-.8-.6h-.2v2.4l.1.1h.6v.5s-2.5.1-2.5.1zm-3-2.7h1.3c0-.8-.2-1.1-.6-1.1s-.6.3-.7 1.1zm-34-1.7h.5v3.8l.1.1h.5v.5h-2.5v-.4h.5l.1-.1v-3h-.5v-.4s1.3-.5 1.3-.5zm3.3.1c1.4 0 2.2.9 2.2 2.2 0 1.4-.8 2.2-2.3 2.2-1.4 0-2.3-.8-2.3-2.2.1-1.4.9-2.2 2.4-2.2zm-3.5-2.1c.4 0 .7.3.7.8s-.3.8-.7.8-.7-.3-.7-.8.3-.8.7-.8zm-5 6.4v-.4h.4l.2-.2v-2.8h-.6v-.4l1.5-.5h.5l-.1 1c.3-.4.7-.7 1.1-1h.1c.3 0 .4 0 .6.2l-.2 1.7h-.6c-.2-.4-.4-.6-.8-.6h-.2v2.4l.1.1h.6v.5zm-2.1-.9v-1.3c-.5.1-.6.1-.7.2-.3.1-.5.3-.5.7s.2.6.6.6c.1 0 .3-.1.6-.2zm-1-2.9v.9h-.9c-.3 0-.5-.1-.5-.3 0-.6.9-1.1 2-1.1.6 0 1.1.1 1.4.4s.4.5.4 1.4v1.9l.1.1h.4v.5h-1.8l-.1-.5c-.7.4-1.1.6-1.5.6-.6 0-1.1-.5-1.1-1.2 0-.4.2-.7.4-1 .2-.2.8-.4 2.2-.7v-.2c0-.6-.3-.8-1-.8zm-3.1-2.6c.4 0 .7.3.7.8s-.3.8-.7.8-.7-.3-.7-.8.3-.8.7-.8zm.3 2h.5v3.9h.5v.5h-2.5v-.4h.5l.1-.1v-3h-.5v-.4s1.4-.5 1.4-.5zm-5.4 3.8h.3c1.2 0 1.7-.8 1.7-2.4s-.6-2.3-1.7-2.3h-.3zm-2-5.2h2.7c1.9 0 2.9 1.1 2.9 2.9s-1 2.9-2.9 2.9h-2.7v-.5h.5l.1-.2v-4.5l-.1-.1h-.5zm64.6 4.9v-1.3c-.5.1-.6.1-.8.2-.3.1-.5.3-.5.7s.2.6.6.6c.2 0 .4-.1.7-.2zm-1.1-2.9v.9h-.9c-.3 0-.5-.1-.5-.3 0-.6.9-1.1 2-1.1.6 0 1.1.1 1.4.4.4.3.4.5.4 1.4v1.9l.1.1h.4v.5h-1.8l-.1-.5c-.7.4-1.1.6-1.5.6-.6 0-1.1-.5-1.1-1.2 0-.4.2-.7.4-1 .2-.2.8-.4 2.2-.7v-.2c.1-.6-.2-.8-1-.8zm-41.7 0c-.6 0-.9.6-.9 1.7s.3 1.7.8 1.7c.6 0 .8-.5.8-1.6.1-1.3-.2-1.8-.7-1.8zm6.2-1.6h-.6v-.5l1.5-.5h.5v5.8l.1.1h.5v.5h-1.9v-.5c-.7.5-1 .6-1.4.6-.9 0-1.6-.9-1.6-2.1 0-1.4.8-2.3 2.1-2.3.3 0 .6 0 .9.1 0 0-.1-1.2-.1-1.2zm0 4.6v-2.8c-.2-.1-.3-.1-.5-.1-.6 0-1 .6-1 1.5s.3 1.4 1 1.4zm6-.4v.8c-.7.4-1.2.5-1.9.5-1.3 0-2.2-.9-2.2-2.3 0-1.3.9-2.2 2.2-2.2 1.2 0 1.9.8 1.9 2v.1h-2.7c.1 1 .4 1.4 1.2 1.4.5.2.9 0 1.5-.3zm-2.7-1.5h1.3c0-.8-.2-1.1-.6-1.1-.5 0-.7.3-.7 1.1zm5.9-3.1h1.1l1.8 5.3.5.1v.5h-2.6v-.6h.5l.1-.1-.4-1.3h-1.7l-.4 1.3.1.1.5.1v.5h-1.8v-.6h.5s1.8-5.3 1.8-5.3zm.2 1.4-.6 1.9h1.3zm3.5 4.4v-.4l.5-.1.1-.1v-4.9h-.6v-.4l1.5-.5h.4v5.8l.1.1h.5v.5zm14.3-1.2v.8c-.7.4-1.2.5-1.9.5-1.3 0-2.2-.9-2.2-2.3 0-1.3.9-2.2 2.2-2.2 1.2 0 1.9.8 1.9 2v.1h-2.7c.1 1 .4 1.4 1.2 1.4.5.2.9 0 1.5-.3zm-11.5 1.2v-.4h.4l.1-.1v-2.9h-.5v-.4l1.4-.5h.5v.6c.7-.4 1-.6 1.4-.6s.7.2 1 .6c.8-.5 1.2-.6 1.7-.6.8 0 1.1.5 1.1 1.6v2.2l.1.1h.4v.5h-2.4v-.5h.3l.1-.1v-1.9c0-.7-.2-1-.9-1-.2 0-.3 0-.5.1v2.7l.1.1h.4v.5h-2.2v-.4h.3l.1-.1v-2c0-.6-.2-.9-.7-.9-.1 0-.3 0-.4.1v2.8l.1.1h.3v.5z"/></svg>