<svg enable-background="new 0 0 61.3 16" viewBox="0 0 61.3 16" xmlns="http://www.w3.org/2000/svg"><g fill="#211915"><path d="m.2 11.7h61.2v1.5h-61.2z"/><path d="m4.5 4.6c-.7-.6-1.3-.6-2.1-.6h-2.2v.5h.3c.3 0 .4 0 .4.6v4.2c0 .6 0 .6-.4.6h-.3v.5h2.1c.9 0 1.4 0 1.8-.3.8-.5 1.3-1.5 1.3-3-.1-1-.4-1.9-.9-2.5zm-2.1 5.4c-.3 0-.3-.2-.3-.5v-4.5c0-.5.1-.5.3-.5h.2c1 0 1.4.8 1.4 2.7 0 2.8-.9 2.8-1.6 2.8zm34.8-2h.4l-.1 2.4h-4.5v-.4h.4c.3 0 .4 0 .4-.6v-4.3c0-.6 0-.6-.4-.6h-.3v-.5h4.3v2.2h-.4c-.2-1.5-.6-1.7-1.5-1.7h-.3c-.2 0-.3 0-.3.4v2h.1c.6 0 .8-.3.8-1.2h.4v3h-.4c0-1.1-.3-1.3-.8-1.3h-.1v2c0 .5.1.5.3.5h.4c.4 0 .9 0 1.3-.8.1-.3.2-.6.3-1.1zm17-4h2.7v.5h-.4c-.3 0-.4 0-.4.6v4.2c0 .6 0 .6.4.6h.4v.5h-2.7v-.4h.4c.3 0 .4 0 .4-.6v-4.3c0-.6 0-.6-.4-.6h-.4zm-2.9 6.5c.9 0 1.4 0 1.8-.3.8-.5 1.3-1.5 1.3-3 0-1.2-.3-2-.9-2.6-.6-.6-1.2-.6-2-.6h-2.3v.5h.3c.3 0 .4 0 .4.6v4.2c0 .6 0 .6-.4.6h-.6c-.3 0-.3 0-.5-.5l-1.8-5.7h-.5l-1.8 5.3c-.2.7-.4.9-.8.9v.5h2v-.4h-.2c-.3 0-.5-.2-.5-.4 0 0 0 0 0-.1 0-.2 0-.4.1-.5l.1-.3h1.9l.2.7v.1c0 .1.1.2.1.3 0 .2-.2.2-.4.2h-.3v.5zm-6-2.5.8-2.4.8 2.4zm6.2 2c-.3 0-.3-.2-.3-.5v-4.5c0-.5.1-.5.3-.5h.2c1 0 1.4.8 1.4 2.7 0 2.8-.9 2.8-1.6 2.8zm9.8-2-.1 2.5h-4v-.5l2.8-5.5h-.6c-.5 0-1.3 0-1.5 1.7h-.5l.1-2.2h3.9v.5l-2.8 5.5h.7c.8 0 1.3 0 1.6-1.9h.4zm-17.3.2c-.1.8-.6 2.4-2.2 2.4-1.5 0-2.4-1.3-2.4-3.3 0-.8.2-3.6 2.6-3.6.6 0 1.2.2 1.7.5l.1 1.9h-.5c-.2-1.6-.8-1.9-1.2-1.9s-1.4.3-1.4 2.9c0 1.2.2 2.7 1.3 2.7.7 0 1.2-.6 1.4-1.7zm-11.7-3.6c-.6-.6-1.3-.6-2-.6h-2.3v.5h.3c.3 0 .4 0 .4.6v4.2c0 .6 0 .6-.4.6h-.3v.5h2.1c.9 0 1.4 0 1.8-.3.8-.5 1.3-1.5 1.3-3-.1-1-.3-1.9-.9-2.5zm-2 5.4c-.3 0-.3-.2-.3-.5v-4.5c0-.5.1-.5.3-.5h.1c1 0 1.4.8 1.4 2.7 0 2.8-.9 2.8-1.5 2.8zm-6.4-6.2c-2 0-2.5 2.1-2.5 3.4 0 1.6.7 3.5 2.5 3.5 2 0 2.5-2.1 2.5-3.4 0-.4-.1-3.5-2.5-3.5zm0 6.3c-1 0-1.2-1.4-1.2-2.9 0-2 .3-2.9 1.1-2.9s1.2.9 1.2 2.8c.1 2.1-.3 3-1.1 3zm-12.4-.7c0 .1.1.2.1.3 0 .2-.2.2-.4.2h-.4v.5h5.2v-.4h-.4c-.3 0-.4 0-.4-.6v-1.9h.3c.4 0 .5.1.7.5l.8 2.5h4.4v-.5h-.4c-.3 0-.4 0-.4-.6v-4.3c0-.6 0-.6.4-.6h.4v-.5h-2.7v.5h.4c.3 0 .4 0 .4.6v4.2c0 .6 0 .6-.4.6h-.5c-.4 0-.4 0-.6-.5l-.4-1.1c-.3-.8-.5-1-.8-1.1.8-.2 1.3-.9 1.2-1.7 0-.6-.3-1.2-.8-1.5-.3 0-.7-.1-1.2 0h-2.6v.5h.3c.3 0 .4 0 .4.6v4.2c0 .6 0 .6-.4.6h-.5c-.3 0-.3 0-.5-.5l-1.8-5.7h-.5l-1.8 5.3c-.2.8-.3 1-.7 1h-.4c-.3 0-.4 0-.4-.6v-4.3c0-.6 0-.6.4-.6h.4v-.5h-2.7v.5h.4c.3 0 .4 0 .4.6v4.2c0 .6 0 .6-.4.6h-.4v.5h4.6v-.4h-.2c-.3 0-.5-.2-.5-.5 0 0 0 0 0-.1 0-.2 0-.4.1-.5l.1-.3h1.9zm-2-1.4.8-2.4.8 2.4zm6.1-1h-.3v-2c0-.4.1-.5.3-.5h.2c.5 0 1 .1 1 1.2 0 1.3-.6 1.3-1.2 1.3z"/></g></svg>