<svg enable-background="new 0 0 63.5 16" viewBox="0 0 63.5 16" xmlns="http://www.w3.org/2000/svg"><path d="m4.7 8c0 1.6-.9 2.5-2.6 2.5h-.4v-4.9h.5c.8 0 1.3.1 1.7.4.5.4.8 1.2.8 2zm1.5 0c0-1-.4-1.9-1-2.6-.7-.8-1.5-1.1-2.9-1.1h-2.1v7.4h2.1c1.3 0 2.3-.4 2.9-1.1.7-.6 1-1.6 1-2.6zm.4 3.7v-5.2h1.4v5.2zm4.6-1.3c-.2.1-.3.2-.3.2-.2.1-.4.2-.5.2-.3 0-.5-.2-.5-.5 0-.1 0-.2.1-.4l1.3-.4v.9zm1.7.4c-.4 0-.4-.1-.4-.6v-2.2c0-1.1-.6-1.7-1.8-1.7-1.4 0-2.2.5-2.2 1.4 0 .1 0 .2.1.4l1.3-.3v-.1c0-.3.3-.5.7-.5s.6.3.6.8v.4l-1.5.6c-.8.2-1.1.5-1.2 1-.1.2-.1.3-.1.5 0 .8.6 1.4 1.5 1.4.5 0 .9-.2 1.4-.6.2.5.4.6 1.1.6h.3zm3-2.7c-.1-.1-.2-.1-.4-.1s-.4.1-.6.4-.4.6-.4 1v2.4h-1.3v-5.3h1.1l.1 1.1c.5-.9.8-1.2 1.2-1.2.3 0 .5.1.7.4 0 0-.4 1.3-.4 1.3zm.7 3.6v-5.2h1.3v5.2zm5.4-2.6c0 .9-.5 1.7-1.2 1.7s-1.2-.8-1.2-1.7.5-1.7 1.2-1.7 1.2.8 1.2 1.7zm1.4 0c0-1.6-1.1-2.7-2.6-2.7s-2.6 1.2-2.6 2.7c0 1.6 1.1 2.7 2.6 2.7 1.5.1 2.6-1.1 2.6-2.7zm5.6.9c-.3.5-.7.8-1.1.8-.6 0-1.1-.7-1.1-1.6 0-1 .5-1.7 1.3-1.7.4 0 .8.2.9.5 0 .1.1.4.1.7zm1.3 1.7v-8.1h-1.3v3.2c-.3-.2-.4-.2-.7-.3-.2 0-.3-.1-.4-.1-1.4 0-2.4 1.3-2.4 2.9 0 1.5.9 2.6 2.1 2.6.3 0 .7-.1 1-.3.2-.2.3-.3.5-.6v.7zm3.6-3.2h-2c.1-.7.5-1.1 1.1-1.1.7 0 .9.3.9 1.1zm1.4 2.7-.5-1c-.5.3-.7.4-1 .5-.2.1-.4.1-.6.1-.5 0-.9-.2-1.1-.6-.1-.2-.2-.4-.2-.8h3.4v-.6c0-1.4-.9-2.4-2.1-2.4-1.5 0-2.6 1.2-2.6 2.9 0 1.6 1 2.6 2.5 2.6.6 0 1.1-.1 1.7-.4 0-.1.2-.1.5-.3zm7.5-2.7h-2c.1-.7.5-1.1 1.1-1.1s.9.3.9 1.1zm1.4 2.7-.5-1c-.5.3-.7.4-1 .5-.2.1-.4.1-.6.1-.5 0-.9-.2-1.1-.6-.1-.2-.2-.4-.2-.8h3.4v-.6c0-1.4-.9-2.4-2.1-2.4-1.5 0-2.6 1.2-2.6 2.9 0 1.6 1 2.6 2.5 2.6.6 0 1.1-.1 1.7-.4 0-.1.2-.1.5-.3zm3.2-3.1c-.1-.1-.3-.1-.4-.1-.2 0-.4.1-.6.4-.3.2-.4.6-.4.9v2.4h-1.3v-5.2h1.1l.1 1.1c.5-.9.8-1.2 1.2-1.2.3 0 .5.1.7.4 0 0-.4 1.3-.4 1.3zm3.7.4h-2c.1-.7.5-1.1 1.1-1.1s.8.3.9 1.1zm1.3 2.7-.5-1c-.5.3-.7.4-1 .5-.2.1-.4.1-.6.1-.5 0-.9-.2-1.1-.6-.2-.3-.2-.4-.2-.9h3.4v-.5c0-1.4-.9-2.4-2.1-2.4-1.5 0-2.6 1.2-2.6 2.9 0 1.6 1 2.6 2.5 2.6.6 0 1.1-.1 1.7-.4.1-.1.2-.1.5-.3zm.3.5v-1l2.5-3.2h-2.5v-1h4.1v.8l-2.6 3.3h2.6v1.1z"/><path d="m18 5.2c0 .4-.3.7-.7.7s-.7-.3-.7-.7.3-.7.7-.7c.4-.1.7.3.7.7zm-10 0c0 .4-.3.7-.7.7s-.7-.3-.7-.7.3-.7.7-.7c.4-.1.7.3.7.7z"/><path d="m37.6 4.3v6.3c0 .8-.1 1.3-.4 1.9-.2.3-.2.5-.6 1.1l1 .7c.4-.5.5-.6.7-1 .3-.5.4-.7.6-1.4v-7.6z"/><path d="m37.6 1.9h26v1.5h-26z"/></svg>