<svg enable-background="new 0 0 58.6 16" viewBox="0 0 58.6 16" xmlns="http://www.w3.org/2000/svg"><path d="m58.4 5.8-1.8 6.8c-.4 1.4-1 1.8-2.2 1.8-.8 0-1.5-.2-1.5-.2v-1.4s.9.2 1.3.2.6-.1.6-.5l.1-.4-2.3-6.2h2.2l.9 4.3.6-4.3h2.1zm-7.7 3.1c0-1.7-.2-2-.8-2s-.8.3-.8 2c0 1.6.4 1.9.8 1.9.5 0 .8-.2.8-1.9zm2 0c0 2.7-1.4 3.3-2.8 3.3-1.5 0-2.8-.6-2.8-3.3 0-2.6 1.3-3.2 2.8-3.2 1.4 0 2.8.5 2.8 3.2zm-6.2 3.2h-2v-3.7h-1.7v3.7h-2v-8.3h2v3.2h1.7v-3.2h2z"/><path d="m36.6 10.7v-1.7h-.4c-.5 0-.6.2-.6 1 0 .7.2.9.5.9.2 0 .5-.2.5-.2zm2 1.4h-1.6l-.3-.5s-.4.6-1.2.6c-.7 0-1.8-.2-1.8-2 0-1.9 1.6-2.1 2.4-2.1h.6v-.4c0-.4-.1-.5-.7-.5s-1.7.3-1.7.3v-1.5s1.1-.4 2.1-.4c1.3 0 2.2.4 2.2 1.9zm-7.4-1.6v-3.2s-.3-.2-.6-.2c-.6 0-.9.2-.9 1.8s.3 1.8.8 1.8c.3 0 .7-.2.7-.2zm1.9 1.6h-1.6l-.3-.4s-.5.6-1.4.6-2.3-.2-2.3-3.2 1.7-3.2 2.5-3.2c.6 0 1 .3 1 .3v-2.7h2zm-8-1.4v-1.7h-.4c-.5 0-.6.2-.6 1 0 .7.2.9.5.9.2 0 .5-.2.5-.2zm1.9 1.4h-1.6l-.3-.5s-.4.6-1.2.6c-.7 0-1.8-.2-1.8-2 0-1.9 1.6-2.1 2.4-2.1h.6v-.4c0-.4-.1-.5-.7-.5s-1.7.3-1.7.3v-1.5s1.1-.4 2.1-.4c1.3 0 2.2.4 2.2 1.9zm-5.4 0h-2v-4.4c0-.4-.1-.5-.4-.5-.4 0-.9.3-.9.3v4.5h-2v-6.2h1.6l.3.5s.7-.6 1.7-.6c1.1 0 1.6.5 1.6 1.6l.1 4.8c-.1 0 0 0 0 0zm-8.1-1.4v-1.7h-.4c-.5 0-.6.2-.6 1 0 .7.2.9.5.9s.5-.2.5-.2zm2 1.4h-1.6l-.3-.5s-.4.6-1.2.6c-.7 0-1.8-.2-1.8-2 0-1.9 1.6-2.1 2.4-2.1h.6v-.4c0-.4-.1-.5-.7-.5s-1.7.3-1.7.3v-1.5s1.1-.4 2.1-.4c1.3 0 2.2.4 2.2 1.9zm-5-4.6s-.4-.1-.8-.1c-.5 0-.8.3-.8.3v4.5h-2v-6.4h1.6l.3.6s.3-.8 1.1-.8c.4 0 .7.1.7.1v1.8zm-4.6 4.3s-1.5.4-2.6.4c-1.3 0-3.2-.1-3.2-4.1 0-3.8 2.2-4.4 3.6-4.4 1.2 0 1.9.4 1.9.4v1.4s-.9-.3-1.9-.3c-1-.1-1.7.4-1.7 2.8 0 2.5.7 2.7 1.2 2.7.3 0 .7-.1.7-.1v-2.2h-.8l-.1-1.4h2.9z"/></svg>