<svg enable-background="new 0 0 67.1 16" viewBox="0 0 67.1 16" xmlns="http://www.w3.org/2000/svg"><path d="m4.7 6.8c0 1.4-.7 2.3-2.3 2.3h-.7v-4.6h.8c1.5 0 2.2.7 2.2 2.3zm1.5 0c0-2.8-1.5-3.8-3.7-3.8h-2.3v7.5h2.2c1.9 0 3.8-1.1 3.8-3.7zm1.4-2.4c-.4 0-.8-.4-.8-.8 0-.5.4-.9.8-.9.5 0 .8.4.8.9.1.4-.3.8-.8.8zm-.7 6.1v-5.6h1.5v5.7h-1.5zm5.4-1.6c-.2.3-.6.5-1 .5-.6 0-.9-.4-.9-.7 0-.4.3-.7.9-.7.5 0 .8.1 1 .2zm1.5 1.6v-3.7c0-1.3-.9-2-2.3-2-.9 0-1.5.2-2.1.6l.6 1c.5-.3.8-.4 1.5-.4.5 0 .8.3.8.7v.3c-.2-.1-.6-.2-1.1-.2-1.3 0-2.3.6-2.3 1.9 0 1.4 1.1 2 2.1 2 .5 0 1-.2 1.3-.5v.4zm4-3.9c-.2-.2-.5-.4-.9-.4-.6 0-1 .2-1 1.2v3.1h-1.5v-5.6h1.5v.4c.3-.3.7-.5 1.3-.5.5 0 .9.2 1 .4 0 0-.4 1.4-.4 1.4zm1.4-2.2c-.5 0-.8-.4-.8-.9s.4-.9.8-.9c.5 0 .8.4.8.9.1.5-.3.9-.8.9zm-.7 6.1v-5.6h1.5v5.7h-1.5zm5.6-2.8c0 .8-.3 1.5-1.1 1.5-.7 0-1-.6-1-1.5s.3-1.5 1-1.5c.8 0 1.1.7 1.1 1.5zm1.5 0c0-1.7-1.1-2.9-2.6-2.9s-2.6 1.2-2.6 2.9 1.1 2.9 2.6 2.9c1.5.1 2.6-1.1 2.6-2.9zm4.6 1.1c-.2.3-.5.5-.9.5-.6 0-1-.5-1-1.7 0-.9.3-1.4.9-1.4.4 0 .8.2 1 .5zm1.5 1.7v-7.8l-1.5.7v1.8c-.3-.2-.7-.4-1.2-.4-1.4 0-2.2 1.2-2.2 2.9 0 2.1 1 3 2.2 3 .5 0 .9-.2 1.2-.5v.4zm3.9-3.4h-1.9c.1-.6.4-1 .9-1 .7 0 1 .5 1 1zm1.5.6c0-1.6-.9-2.9-2.4-2.9-1.4 0-2.5 1.2-2.5 2.9 0 1.8 1 2.9 2.7 2.9.8 0 1.6-.3 2-.9l-1.1-.9c-.2.2-.6.4-1 .4-.5 0-1.1-.3-1.2-1.1h3.4c.1 0 .1-.2.1-.4zm4.2 3c-1.3 0-2.4-.5-2.9-1.4l1.1-1c.5.6 1.2.9 1.9.9.9 0 1.3-.2 1.3-.8 0-.5-.3-.7-1.7-1s-2.4-.8-2.4-2.2 1.2-2.2 2.7-2.2c1.2 0 2 .4 2.7 1.2l-1.1 1.1c-.5-.5-1-.8-1.7-.8-.8 0-1.1.3-1.1.7 0 .5.3.6 1.5.9s2.5.7 2.5 2.3c.2 1.3-.7 2.3-2.8 2.3zm6.7-3.6h-1.9c.1-.6.4-1 .9-1 .7 0 1 .5 1 1zm1.5.6c0-1.6-.9-2.9-2.4-2.9-1.4 0-2.5 1.2-2.5 2.9 0 1.8 1 2.9 2.7 2.9.8 0 1.6-.3 2-.9l-1.1-.9c-.2.2-.6.4-1 .4-.5 0-1.1-.3-1.2-1.1h3.4c.1 0 .1-.2.1-.4zm3.3 2.8h-1.5l-2-5.7h1.6l.8 2.6c.1.4.3 1 .4 1.2.1-.3.2-.8.4-1.2l.8-2.6h1.6zm3.2-6.1c-.5 0-.8-.4-.8-.9s.4-.9.8-.9c.5 0 .8.4.8.9s-.4.9-.8.9zm-.8 6.1v-5.6h1.5v5.6zm2.4 0v-7.1l1.5-.7v7.9h-1.5zm2.4 0v-7.1l1.5-.7v7.9h-1.5zm5.4-1.6c-.2.3-.6.5-1 .5-.6 0-.9-.4-.9-.7 0-.4.3-.7.9-.7.5 0 .8.1 1 .2zm1.5 1.6v-3.7c0-1.3-.9-2-2.3-2-.9 0-1.5.2-2.1.6l.6 1c.4-.3.8-.4 1.5-.4.5 0 .8.3.8.7v.3c-.2-.1-.6-.2-1.1-.2-1.3 0-2.3.6-2.3 1.9 0 1.4 1.1 2 2.1 2 .5 0 1-.2 1.3-.5v.4z"/><path d="m.2 11.5h67v1.9h-67c0 0 0-1.9 0-1.9z"/></svg>