<svg enable-background="new 0 0 43.3 16" viewBox="0 0 43.3 16" xmlns="http://www.w3.org/2000/svg"><path d="m.2 11.7h42.9v2.7h-42.9z"/><path d="m.2 14.5h42.9v.9h-42.9z"/><path d="m32.7 4.5v1.4h-1.4c-.5 0-.7-.1-.7-.5 0-.9 1.3-1.7 3-1.7.9 0 1.6.2 2.1.7.4.5.5.8.5 2.1v3l.1.2.7.1v.7h-2.7l-.2-.7c-1 .7-1.5.9-2.2.9-1 0-1.7-.8-1.7-1.8 0-.6.2-1.2.7-1.6.4-.3 1.2-.6 3.2-1.1v-.4c.1-1-.3-1.3-1.4-1.3zm1.5 4.5v-2c-.7.1-.8.2-1.1.3-.5.2-.7.5-.7 1 0 .6.3.9.8.9.3.1.5 0 1-.2zm-5.4-8.5h1.8l-1.9 2.5h-1.1zm-.2 3.2h.7v5.7l.1.2.8.1v.7h-3.8v-.7l.7-.1.2-.2v-4.3h-.8v-.6zm-10.9-2.2h4.1c2.8 0 4.4 1.6 4.4 4.4s-1.6 4.4-4.4 4.4h-4.1v-.7l.8-.1.2-.2v-6.8l-.2-.2h-.8zm3.1 8h.5c1.7 0 2.6-1.2 2.6-3.6s-.8-3.5-2.6-3.5h-.5zm-8 1v-.7l.7-.1.1-.1v-7.4h-.8v-.6l2.2-1.1h.6v9.1l.1.1.8.1v.7zm-.3-1.9v1.2c-1 .5-1.8.7-2.9.7-2 0-3.3-1.2-3.3-3.4.1-2.1 1.4-3.4 3.4-3.4 1.8 0 2.9 1.2 2.9 3.3v.2h-4.1c.1 1.5.7 2.2 1.8 2.2.7-.1 1.4-.3 2.2-.8zm-4-2.3h1.9c0-1.3-.3-1.8-.9-1.8-.7 0-1 .5-1 1.8z"/><path d="m14.5 13.2c0 .5-.3.8-.8.8h-.4v-1.5h.5c.5 0 .7.1.7.7zm-.3 0c0-.3-.1-.5-.5-.5h-.2v1h.1c.4 0 .6-.1.6-.5zm1.8.7h-.8v-1.5h.8v.2h-.5v.4h.5v.2h-.5v.4h.5zm2.6 0c-.1 0-.2.1-.4.1-.5 0-.7-.4-.7-.7 0-.5.3-.8.7-.8h.3v.3h-.3c-.2 0-.4.2-.4.5s.1.5.4.5c.1 0 .2 0 .2-.1 0 0 .2.2.2.2zm1.7-1.6-.6.1v-.1l.5-.2zm.2.9c0 .5-.3.8-.7.8-.5 0-.6-.3-.6-.7 0-.5.3-.8.7-.8s.6.2.6.7zm-.3 0c0-.3-.1-.4-.4-.4-.2 0-.4.1-.4.4s.1.4.4.4c.2.1.4-.1.4-.4zm2.1.7h-.4l-.4-.6v.6h-.3v-1.5h.4c.4 0 .5.1.5.4 0 .2-.1.4-.3.4l.1.2s.4.5.4.5zm-.4-1c0-.1-.1-.2-.3-.2h-.1v.4h.1c.2 0 .3-.1.3-.2zm2.3.3c0 .5-.3.8-.8.8h-.4v-1.5h.5c.5 0 .7.1.7.7zm-.3 0c0-.3-.1-.5-.5-.5h-.2v1h.1c.4 0 .6-.1.6-.5zm2.3 0c0 .5-.3.8-.7.8-.5 0-.6-.3-.6-.7 0-.5.3-.8.7-.8s.6.2.6.7zm-.3 0c0-.3-.1-.4-.4-.4-.2 0-.4.1-.4.4s.1.4.4.4c.2.1.4-.1.4-.4zm2.1.3c0 .2-.2.4-.6.4h-.4v-1.5h.5c.3 0 .5.1.5.3s-.1.3-.2.3c.1.2.2.4.2.5zm-.4-.6c0-.1-.1-.2-.2-.2h-.1v.4h.1c.1 0 .2-.1.2-.2zm.1.6c0-.1-.1-.2-.3-.2h-.1v.4h.2c.1 0 .2-.1.2-.2zm2.2.4h-.4l-.1-.3h-.5l-.1.3h-.3l.5-1.5h.4s.5 1.5.5 1.5zm-.5-.5-.1-.3-.1-.2c0 .1 0 .1-.1.2l-.1.3z"/></svg>