<svg enable-background="new 0 0 53.5 16" viewBox="0 0 53.5 16" xmlns="http://www.w3.org/2000/svg"><path d="m0 10.4v-7.5h4.3v1.5h-2.5v1.5h2.4v1.4h-2.4v1.7h2.5v1.5h-4.3zm8.4 0c0-.2 0-.6.1-.9-.3.6-1 1-1.8 1-1.2 0-1.7-.8-1.7-1.8v-3.9h1.7v3.5c0 .5.1.7.5.7.6 0 1.1-.8 1.1-1.6v-2.6h1.7v5.6zm5.3-4c-.7-.2-1.4.3-1.4 1.7v2.3h-1.7v-5.6h1.6c0 .2 0 .6-.1 1 .3-.7.8-1.2 1.7-1.1 0 0-.1 1.7-.1 1.7zm4 1.2c0 .9-.4 1.4-1 1.4-.7 0-1-.5-1-1.5s.5-1.4 1.1-1.4c.6.1.9.6.9 1.5zm1.8-.1c0-1.8-1-2.8-2.7-2.8s-2.9 1.2-2.9 3c0 2 1.1 2.8 2.7 2.8s2.9-1.2 2.9-3zm3.8 0c0 1.2-.5 1.7-1.2 1.7-.2 0-.4 0-.6-.1v-1.4c0-.9.4-1.6 1-1.6s.8.5.8 1.4zm1.8-.2c0-1.6-.7-2.6-2-2.6-.8 0-1.4.3-1.7.9v-.8h-1.6v8.2h1.7v-2.6h.6c2.1.1 3-1.2 3-3.1zm3.4.9c0 .5-.4 1.1-1 1.1-.4 0-.6-.2-.6-.5 0-.4.3-.7 1.6-.6zm1.8 2.2v-3.8c0-1.2-.5-1.9-2.4-1.9-.7 0-1.5.1-2.1.3l.3 1.3c.4-.2 1-.4 1.5-.4.7 0 1 .2 1 .7v.2c-1.8 0-3.1.6-3.1 2 0 .9.8 1.6 1.6 1.6s1.4-.4 1.7-1v.8h1.5z"/><path d="m-.1 12.2h53.6v1.7h-53.6zm32.8-1.6c-.7 0-1.3-.1-1.8-.2l.2-1.7c.4.2 1 .3 1.6.3s1.1-.2 1.1-.8c0-1.3-3.1-.6-3.1-3.2 0-1.4 1.1-2.4 3.1-2.4.4 0 1 0 1.4.1l-.2 1.5c-.4-.1-.9-.2-1.3-.2-.7 0-1.1.3-1.1.7 0 1.2 3.1.8 3.1 3.2 0 1.6-1.2 2.7-3 2.7z"/><path d="m40.1 10.5c0-.2 0-.6.1-.9-.4.6-1 1-1.9 1-1.3 0-1.7-.8-1.7-1.8v-2.7c-.3 0-.7-.1-1-.1v-1.1c.9-.1 1.8-.1 2.7-.1v3.6c0 .5.1.7.5.7.6 0 1.1-.8 1.1-1.6v-2.7h1.7v4.4c.3 0 .7.1 1 .1v1.1c-.7.1-1.6.1-2.5.1zm6.5-4.1c-1-.2-1.5.3-1.5 1.8v2.3h-1.8v-4.4c-.3 0-.7-.1-1-.1v-1.1c.8-.1 1.8-.1 2.6-.1 0 .3 0 .7-.1 1 .3-.7.8-1.2 1.7-1.1 0 0 .1 1.7.1 1.7z"/></svg>