<svg enable-background="new 0 0 57.2 16" viewBox="0 0 57.2 16" xmlns="http://www.w3.org/2000/svg"><path d="m34.7 11.3.1-3.1h.3v3.1zm2.6.1v-1.5-.3c0-.1-.1-.1-.2-.1-.2 0-.5.2-.8.6v1.3h-.4v-2.2h.4v.5l.3-.3c.2-.1.4-.2.6-.2.4 0 .6.2.6.6v1.6zm2.4-3.2c-.2-.1-.2-.1-.4-.1-.4 0-.6.2-.6.8v.3h.5v.3h-.5v1.9h-.4v-1.9h-.4v-.2l.4-.1v-.4c0-.6.4-1 .9-1 .2 0 .3 0 .5.1zm1.4 2.1c0 .5-.3.8-.7.8s-.7-.4-.7-.8c0-.5.3-.8.7-.8s.7.3.7.8zm.4 0c0-.6-.5-1.2-1.1-1.2s-1.1.5-1.1 1.1.5 1.2 1.1 1.2c.6.1 1.1-.5 1.1-1.1zm1.5-.7c-.1-.1-.1-.1-.2-.1s-.3.2-.5.6v1.3h-.4v-2.2h.4v.4c.3-.3.4-.5.6-.4.1 0 .2.1.3.2 0 0-.2.2-.2.2zm3.3 1.8v-1.5-.3c0-.1-.1-.1-.2-.1-.2 0-.4.1-.7.5l-.1.1v1.3h-.4v-1.5-.3c0-.1-.1-.1-.2-.1-.2 0-.5.2-.8.6v1.3h-.4v-2.2h.4v.5l.3-.3c.2-.1.4-.2.6-.2.4 0 .5.2.6.5l.3-.3c.2-.1.4-.2.6-.2.4 0 .6.2.6.6v1.6zm2.1-.5c-.3.2-.4.3-.6.3s-.3-.1-.3-.3c0-.1 0-.1.1-.2l.8-.2zm.5.3c-.1 0-.2-.1-.2-.1v-1.4c0-.3-.3-.5-.7-.6-.5 0-.8.2-.8.5v.1l.4-.1v-.1c0-.1.1-.2.3-.2.3 0 .4.1.4.3v.4l-.8.2c-.3.1-.5.3-.5.6s.2.6.6.6c.2 0 .3 0 .5-.1.1 0 .1-.1.2-.2 0 .2.1.3.4.3 0 0 .2-.2.2-.2zm2 .2c-.2.1-.4.1-.6.1-.7 0-1.1-.5-1.1-1.1 0-.7.5-1.2 1.1-1.2h.3c.1 0 .2.1.4.2l-.2.3c-.2-.1-.3-.2-.5-.2-.4 0-.7.3-.7.8s.3.8.8.8c.2 0 .3 0 .5-.2l.2.3c-.1.1-.1.2-.2.2zm.7-2.6c-.1 0-.2-.1-.2-.2s.1-.2.2-.2.2.1.2.2-.1.2-.2.2zm-.2 2.7v-2.2h.4v2.2zm2.6-1.1c0 .5-.3.8-.7.8s-.7-.4-.7-.8c0-.5.3-.8.7-.8s.7.3.7.8zm0-2.1h-.4l-.4.8h.3s.5-.8.5-.8zm.4 2.1c0-.6-.5-1.2-1.1-1.2s-1.1.5-1.1 1.1.5 1.2 1.1 1.2 1.1-.5 1.1-1.1zm1.9 1.1v-1.5-.3c0-.1-.1-.1-.2-.1-.2 0-.5.2-.8.6v1.3h-.4v-2.2h.4v.5l.3-.3c.2-.1.4-.2.6-.2.4 0 .6.2.6.6v1.6z"/><path d="m.4 12 56.2.4v1.7l-56.2-.4z"/><path d="m10.9 11.1v-1c-.7.8-1.3 1.1-2 1.1-1 0-1.6-.5-1.6-1.6v-4.2h1.5v3.7c0 .7.1 1 .5 1 .3 0 .8-.3 1.4-1l.2-.2v-3.5h1.5v5.8h-1.5zm6.1-3.6h-2.2c.1-.8.6-1.2 1.2-1.2.7 0 1 .3 1 1.2zm1.5 3-.5-1.1c-.5.3-.8.4-1.1.5s-.5.1-.7.1c-.5 0-1-.3-1.3-.7-.1-.2-.2-.4-.2-.9h3.8v-.6c0-1.6-1-2.6-2.4-2.7-1.6 0-2.9 1.4-2.9 3.2s1.1 2.9 2.8 2.9c.7 0 1.3-.1 1.9-.4.1 0 .3-.1.6-.3zm1 .6v-9h1.5l-.1 9zm5.6 0h-1.4l-1.9-5.8 1.5.1 1.2 3.8v.2-.2l1.3-3.8h1.6s-2.3 5.7-2.3 5.7zm5.4-1.4c-.2.2-.3.2-.4.3-.2.1-.4.2-.6.2-.4 0-.6-.2-.6-.6 0-.1 0-.3.1-.5l1.5-.5zm2 .4c-.4 0-.5-.1-.5-.6v-2.4c0-1.3-.6-1.8-2-1.8-1.6 0-2.5.6-2.5 1.6 0 .2 0 .2.1.4l1.4-.3v-.1c0-.3.4-.5.8-.5.5 0 .7.3.7.9v.5l-1.6.5c-.8.2-1.2.5-1.4 1-.1.2-.1.4-.1.6 0 .9.7 1.6 1.7 1.6.6 0 1.1-.2 1.6-.7.3.5.5.6 1.2.6h.3s.3-1.3.3-1.3z"/><path d="m6.2 11.2h-1.6v-3.6h-2.5v3.6h-1.6v-8.4h1.6v3.4h2.5v-3.4h1.6z"/></svg>