<svg enable-background="new 0 0 61.2 16" viewBox="0 0 61.2 16" xmlns="http://www.w3.org/2000/svg"><path d="m36.5 11v-4.3c.4-.1.9-.2 1.4-.2 1.2 0 2.4.5 3.3 1.4.8.8 1.3 2 1.4 3.2h-6.1zm1.3-1.4c.2.2.5.3.8.3s.6-.1.8-.3.3-.5.3-.8-.1-.6-.3-.8-.5-.3-.8-.3-.6.1-.8.3-.3.5-.3.8.1.6.3.8z"/><path d="m36.5 2.6h6.1v5c-.2-.2-.3-.4-.5-.6-1.1-1.1-2.6-1.7-4.2-1.7-.5 0-.9.1-1.4.2z"/><path d="m32.9 5c-1.1 0-2 .4-2.6.7h-.1s.4 1.3.4 1.4h.1c.6-.2 1.3-.4 1.9-.4.4 0 .6.2.6.6v.2h-.9c-1.7 0-2.6.7-2.6 2 0 1.6 1.4 1.7 1.8 1.7.7 0 1.2-.2 1.6-.6v.6h2v-3.8c0-1.7-.7-2.4-2.2-2.4zm.3 4.4c-.2.1-.5.3-.8.3-.4 0-.6-.2-.6-.6s.3-.7.8-.7h.5zm-3.4-4.4h-2.5c-.2 0-.4-.1-.7-.1-1.7 0-2.6.7-2.6 2 0 1 .6 1.4.8 1.6-.5.3-.7.6-.7 1.1 0 .4.2.7.5.9-.5.3-.8.7-.8 1.2 0 1 .9 1.4 2.8 1.4 2 0 2.9-.6 2.9-1.9 0-1.1-.7-1.6-2-1.8l-1.2-.1c-.3 0-.5-.1-.5-.3 0-.1 0-.1.1-.2.2 0 .4.1.6.1 1.2 0 2.6-.3 2.6-1.9 0-.2-.1-.4-.2-.6h.6v-1.4zm-3.7 5.9 1.1.1c.4 0 .6.1.6.5s-.3.6-1 .6-1-.2-1-.6c.1-.3.1-.5.3-.6zm.7-3.1c-.5 0-.7-.3-.7-.9s.2-.9.7-.9.7.3.7.9c-.1.6-.3.9-.7.9zm-5.5-2.8c-1.1 0-2 .4-2.6.7h-.1s.4 1.3.4 1.4h.1c.6-.2 1.3-.4 1.9-.4.4 0 .6.2.6.6v.2h-.9c-1.7 0-2.6.7-2.6 2 0 1.6 1.4 1.7 1.8 1.7.7 0 1.2-.2 1.6-.6v.6h2v-3.8c0-1.7-.7-2.4-2.2-2.4zm.2 4.4c-.2.1-.5.3-.8.3-.4 0-.6-.2-.6-.6s.3-.7.8-.7h.6zm-4-6.8v8.4h-2v-8.4zm-3.5 0c0 .1-.8 1.5-.8 1.5h-1.9c0-.1.6-1.5.7-1.5zm-1.5 2.4c-1.1 0-2 .4-2.6.7h-.1s.4 1.3.4 1.4h.1c.6-.2 1.3-.4 1.9-.4.4 0 .6.2.6.6v.2h-.9c-1.7 0-2.6.7-2.6 2 0 1.6 1.4 1.7 1.8 1.7.7 0 1.2-.2 1.6-.6v.6h2v-3.8c0-1.7-.7-2.4-2.2-2.4zm.3 4.4c-.2.1-.5.3-.8.3-.4 0-.6-.2-.6-.6s.3-.7.8-.7h.6zm-4-6.8v8.4h-2v-4.9s-1.5 4.8-1.6 4.9h-1.5l-1.6-4.9v4.9h-2v-8.4h2.7l1.6 4.8s1.6-4.7 1.6-4.8z"/><path d="m61.3 5.2c0 .1-1.7 4.8-1.7 4.8-.7 2.1-1.6 2.8-3.7 3.1 0 0-.4-1.3-.4-1.4.9-.3 1.4-.7 1.6-1.2l.1-.3-1.9-5h2.2l.8 2.7.8-2.7z"/><path d="m52.5 5c-1.9 0-3 1.1-3 3s1.1 3 3 3 3-1.1 3-3c.1-1.9-1-3-3-3zm0 4.5c-.7 0-1-.5-1-1.5s.3-1.5 1-1.5 1 .5 1 1.5-.3 1.5-1 1.5zm-6.8-6.9v3.2-.1c.3-.2.9-.7 1.7-.7 1 0 1.5.7 1.5 1.8v4.2h-2v-3.5c0-.4-.2-.6-.5-.6s-.6.2-.8.3v3.8h-2v-8.3c.2-.1 2-.1 2.1-.1z"/></svg>